<?xml version="1.0" standalone="no"?>
<!DOCTYPE svg PUBLIC "-//W3C//DTD SVG 20010904//EN"
 "http://www.w3.org/TR/2001/REC-SVG-20010904/DTD/svg10.dtd">
<svg version="1.0" xmlns="http://www.w3.org/2000/svg"
 width="512.000000pt" height="512.000000pt" viewBox="0 0 512.000000 512.000000"
 preserveAspectRatio="xMidYMid meet">
<metadata>
Created by potrace 1.11, written by Peter Selinger 2001-2013
</metadata>
<g transform="translate(0.000000,512.000000) scale(0.100000,-0.100000)"
fill="#000000" stroke="none">
<path d="M2019 4905 c-3 -2 -70 -8 -149 -14 -106 -6 -159 -14 -195 -29 -27
-11 -84 -32 -125 -47 -41 -15 -84 -30 -95 -34 -51 -20 -124 -44 -160 -53 -87
-23 -328 -125 -473 -200 -168 -86 -235 -126 -300 -181 -24 -21 -48 -37 -53
-37 -13 0 -142 -84 -158 -103 -10 -13 -31 -17 -92 -17 -48 0 -81 -4 -85 -11
-5 -9 16 -10 80 -5 l88 7 101 -69 c56 -37 110 -71 119 -75 16 -5 12 -14 -25
-69 -58 -83 -158 -270 -211 -390 -9 -21 -23 -54 -31 -72 -35 -79 -76 -247 -86
-356 -12 -120 -8 -168 36 -363 8 -38 12 -74 8 -79 -3 -7 -1 -8 5 -4 8 4 12 0
12 -11 0 -10 3 -28 6 -41 5 -16 3 -22 -7 -20 -11 2 -13 -11 -10 -62 2 -36 7
-66 12 -68 12 -5 11 -89 -1 -97 -13 -8 -13 -82 0 -90 6 -4 11 -28 11 -53 0
-96 9 -218 19 -246 13 -39 14 -87 0 -66 -5 8 -10 30 -10 48 0 22 -5 32 -15 32
-8 0 -15 -4 -15 -10 0 -5 5 -10 11 -10 5 0 8 -4 4 -9 -11 -19 -12 -76 -2 -99
8 -18 8 -25 -2 -31 -10 -6 -9 -10 3 -14 9 -4 16 -18 16 -32 0 -14 4 -25 10
-25 5 0 21 -11 35 -25 25 -26 33 -41 16 -31 -5 4 -12 -8 -16 -25 -5 -21 -2
-36 9 -48 9 -10 16 -22 15 -27 -1 -5 1 -17 6 -28 6 -14 2 -23 -16 -37 -23 -19
-23 -20 -5 -34 17 -13 17 -15 3 -21 -9 -3 -14 -10 -11 -16 3 -5 12 -7 20 -4
12 5 18 -11 28 -78 2 -12 19 -24 52 -36 27 -9 103 -42 169 -73 134 -62 205
-85 296 -95 l62 -7 20 -73 c11 -40 17 -76 13 -79 -3 -4 -55 -7 -114 -7 -88 -1
-126 4 -212 28 -115 31 -330 50 -316 27 4 -6 16 -11 26 -11 10 0 22 -5 25 -10
3 -6 -4 -10 -15 -10 -15 0 -20 -5 -17 -15 4 -8 2 -17 -4 -21 -5 -3 -6 -11 -2
-17 10 -15 10 -43 -1 -79 -9 -30 -16 -34 -33 -17 -8 8 -17 6 -32 -7 -25 -22
-27 -47 -6 -64 8 -7 15 -19 15 -26 0 -10 7 -13 24 -8 16 4 25 1 29 -10 4 -11
1 -16 -10 -16 -12 0 -13 -3 -4 -13 14 -17 4 -27 -26 -27 -18 0 -23 -6 -23 -24
0 -13 -3 -33 -6 -43 -4 -13 -3 -14 3 -5 8 10 13 9 24 -4 11 -13 11 -18 2 -21
-20 -7 -15 -23 7 -23 11 0 20 -4 20 -10 0 -5 -9 -10 -19 -10 -10 0 -21 -7 -25
-15 -3 -8 -2 -14 2 -14 19 3 23 -2 13 -15 -10 -12 -5 -14 33 -13 31 1 51 -3
62 -15 15 -15 15 -16 -2 -15 -10 1 -19 -4 -20 -10 -3 -26 -5 -28 -15 -10 -5 9
-7 22 -4 27 3 6 -1 10 -10 10 -9 0 -13 -5 -10 -10 3 -6 -1 -10 -11 -10 -13 0
-12 -4 6 -18 23 -19 20 -45 -3 -36 -23 8 -57 -119 -50 -185 3 -31 6 -74 6 -96
0 -22 2 -32 4 -23 5 19 18 24 27 9 8 -13 -4 -42 -15 -35 -12 7 -11 -7 1 -26 8
-12 10 -12 10 -1 0 8 7 19 15 25 13 9 13 19 3 71 -7 33 -19 65 -28 72 -13 11
-13 12 1 13 10 0 19 16 27 50 6 27 23 67 36 89 29 45 110 111 137 111 11 0 19
4 19 10 0 16 109 73 235 124 66 26 168 71 228 99 l107 51 68 -71 c72 -76 166
-134 175 -109 3 8 -8 51 -24 97 -26 77 -27 85 -12 96 14 11 88 9 101 -2 2 -2
-4 -18 -14 -37 -16 -31 -16 -32 0 -19 10 8 23 26 31 41 13 24 22 28 102 37 66
9 115 23 196 57 158 68 189 63 312 -52 189 -177 241 -196 435 -154 306 67 420
124 517 259 25 35 43 66 41 69 -3 2 -26 -24 -52 -60 -98 -132 -180 -170 -561
-256 -122 -27 -157 -18 -267 69 -67 54 -126 111 -114 111 4 0 23 -8 44 -19 20
-10 91 -37 157 -60 106 -37 126 -42 175 -36 30 4 67 14 83 21 15 8 33 12 39 8
7 -4 8 -3 4 4 -4 7 -3 12 2 12 17 0 278 178 335 228 17 16 64 56 102 89 155
132 236 245 289 402 14 41 29 77 34 80 10 6 32 46 32 56 0 3 -4 3 -10 0 -16
-10 -12 12 5 29 8 8 12 21 9 30 -5 13 32 161 43 176 2 2 8 -2 13 -10 13 -20
12 -77 -1 -101 -5 -11 -9 -34 -7 -52 l3 -32 29 52 c15 28 33 49 40 47 6 -2 21
-22 34 -44 12 -22 27 -40 33 -40 11 0 52 45 80 87 8 13 19 20 24 16 4 -5 5 -3
2 3 -3 6 7 30 22 53 l29 43 13 -30 c12 -28 14 -29 35 -16 12 8 32 17 44 19 31
6 38 15 12 15 -11 0 -23 6 -25 13 -4 9 -8 8 -16 -3 -13 -19 -25 -6 -13 15 8
16 84 31 79 16 -1 -3 10 -17 24 -31 l25 -25 0 32 c-1 18 -4 33 -9 33 -4 0 0
11 9 25 9 14 15 27 13 29 -2 3 -31 -7 -63 -20 -67 -27 -96 -30 -96 -10 0 25
48 100 67 103 98 17 100 17 105 -12 3 -15 2 -40 -2 -56 -12 -39 -6 -143 25
-499 25 -278 42 -415 61 -481 3 -12 -15 -23 -78 -47 -46 -17 -93 -33 -105 -37
-13 -3 -23 -11 -23 -17 0 -17 102 -4 151 20 59 29 66 28 72 -10 3 -18 11 -60
16 -93 10 -59 21 -102 36 -139 7 -16 5 -17 -12 -8 -15 9 -19 18 -15 38 3 19 1
25 -6 20 -8 -5 -10 -2 -6 8 4 9 1 16 -6 16 -7 0 -10 6 -7 13 3 7 -3 13 -13 13
-15 0 -17 -7 -13 -43 3 -27 0 -43 -6 -43 -11 0 -15 12 -12 43 2 13 -5 17 -33
17 -19 0 -37 6 -40 13 -5 9 -7 9 -12 0 -11 -25 -20 -13 -16 22 4 31 2 34 -14
28 -16 -6 -17 -4 -7 8 10 12 7 14 -15 13 -21 -1 -26 -6 -25 -21 1 -12 -6 -24
-20 -31 -19 -9 -19 -11 -4 -11 14 -1 17 -6 12 -21 -7 -21 3 -25 57 -21 14 1
29 -3 33 -10 8 -13 -14 -31 -28 -22 -5 3 -3 9 4 14 8 5 10 9 4 9 -5 -1 -19 -7
-29 -15 -11 -8 -28 -15 -37 -15 -10 0 -21 -5 -25 -11 -4 -7 5 -9 29 -6 42 5
52 0 34 -21 -6 -8 -11 -17 -9 -19 10 -14 -2 -13 -18 2 -23 21 -44 9 -54 -31
-8 -32 -32 -26 -29 7 3 22 2 22 -11 7 -7 -10 -17 -14 -21 -10 -5 4 -5 -1 -2
-10 3 -10 2 -20 -3 -23 -21 -13 -8 -25 28 -26 29 0 33 -2 17 -9 -22 -9 -63 -3
-82 12 -7 5 -14 5 -18 -2 -4 -6 -21 -17 -38 -24 -23 -11 -27 -15 -13 -15 15
-1 17 -4 9 -12 -8 -8 -9 -20 -2 -37 5 -13 7 -33 4 -43 -4 -13 -1 -19 9 -19 10
0 13 6 10 15 -4 9 0 15 10 15 9 0 17 -9 17 -20 1 -11 3 -24 4 -30 1 -5 3 -14
4 -20 0 -5 7 -9 14 -7 8 1 11 -9 10 -28 -1 -16 1 -22 4 -12 8 29 22 19 29 -22
5 -30 10 -38 22 -34 10 4 13 2 8 -5 -4 -7 -11 -12 -15 -12 -10 0 -71 58 -71
68 0 4 -18 24 -40 44 -22 21 -52 56 -66 78 -15 22 -30 40 -33 40 -4 0 -12 13
-18 30 -7 18 -18 30 -29 30 -14 0 -15 3 -6 12 16 16 15 28 -2 28 -8 0 -17 7
-20 16 -3 8 -10 13 -15 9 -6 -3 -26 10 -46 29 -32 31 -35 39 -35 90 0 32 4 56
10 56 6 0 5 6 -2 14 -14 14 -32 0 -21 -16 2 -5 -1 -15 -7 -24 -18 -21 -5 -103
22 -131 12 -13 39 -28 60 -34 21 -5 38 -15 37 -22 -5 -38 21 -77 147 -222 96
-111 95 -108 89 -140 -6 -28 -5 -29 9 -11 15 19 16 19 22 0 4 -10 17 -31 28
-45 12 -14 41 -67 66 -117 l45 -91 262 0 262 -1 -15 43 c-13 35 -13 49 -3 80
7 20 9 40 6 44 -4 3 -7 -3 -7 -15 0 -36 -20 -36 -21 0 0 18 -3 44 -6 58 -2 14
-6 50 -8 80 -2 30 -1 44 2 30 7 -35 23 -50 23 -21 0 12 4 19 10 16 6 -3 10
-17 10 -31 0 -14 -4 -23 -9 -20 -12 8 0 -37 12 -46 9 -5 12 -67 5 -95 -1 -5 2
-25 6 -45 7 -35 12 -40 32 -37 4 0 10 -5 15 -13 6 -10 11 -9 22 6 19 26 58 32
51 8 -3 -9 1 -6 9 8 18 30 16 33 -23 32 -32 -1 -37 7 -18 26 12 12 9 14 -19
11 -5 0 -11 10 -14 23 -3 14 -12 22 -21 20 -22 -3 -30 47 -11 73 14 19 15 18
9 -18 -6 -29 -4 -37 9 -37 12 0 14 9 11 43 -3 23 -5 45 -5 50 -1 4 -8 7 -16 7
-8 0 -15 5 -15 10 0 6 11 10 24 10 14 0 32 7 40 16 21 21 20 27 -3 19 -21 -6
-38 10 -21 20 6 4 8 15 5 26 -4 13 -2 19 8 19 10 0 13 -7 10 -19 -6 -23 27
-38 42 -18 5 7 24 17 40 21 28 8 29 9 9 16 -30 12 -40 31 -22 44 8 6 13 16 11
23 -4 12 63 47 76 39 3 -2 12 2 19 10 15 17 8 17 -38 4 -19 -6 -75 -15 -124
-20 -49 -6 -94 -15 -100 -19 -6 -5 -22 -11 -36 -13 -24 -3 -25 -6 -22 -58 2
-30 0 -52 -3 -48 -9 8 -35 137 -35 169 0 15 -6 45 -14 67 -20 57 -32 157 -17
148 6 -4 11 -21 11 -37 0 -19 4 -28 11 -23 7 4 10 -3 9 -17 -1 -13 -2 -42 -1
-64 1 -30 4 -36 11 -25 8 12 10 10 9 -10 -1 -14 -1 -37 -1 -51 l2 -27 53 27
c28 15 77 38 107 50 118 50 300 145 300 157 0 3 -8 1 -17 -4 -185 -91 -232
-109 -293 -110 -19 0 -26 2 -16 5 11 3 26 12 34 19 8 8 22 12 31 10 9 -3 27 3
41 14 20 16 22 20 8 20 -10 0 -18 -4 -18 -10 0 -5 -4 -10 -10 -10 -5 0 -7 7
-4 15 4 8 1 15 -5 15 -6 0 -11 -8 -11 -17 0 -14 -3 -14 -12 -5 -13 13 -3 24
26 35 5 1 9 15 9 30 0 15 4 27 9 27 4 0 7 27 6 60 -1 33 -6 60 -10 60 -4 0 -8
23 -8 50 0 28 -4 50 -10 50 -5 0 -10 -13 -10 -30 0 -16 -4 -30 -10 -30 -5 0
-16 -14 -25 -30 -13 -24 -20 -29 -39 -24 -19 5 -26 0 -35 -23 l-11 -28 3 32
c2 21 -2 34 -11 38 -28 10 -76 5 -94 -12 -17 -15 -18 -15 -18 8 0 19 2 21 10
9 8 -11 10 -3 8 29 -4 57 -19 62 -41 14 -10 -23 -13 -39 -7 -41 6 -2 10 -31
10 -65 0 -96 -16 -56 -34 83 -21 169 -21 168 12 176 15 3 52 15 82 26 30 11
62 21 70 22 8 1 23 6 33 10 9 5 30 6 47 4 16 -2 27 -1 25 2 -8 13 276 137 454
199 57 20 106 42 109 50 4 11 0 12 -14 6 -11 -4 -48 -16 -84 -26 -138 -39
-173 -50 -415 -133 -137 -47 -271 -96 -296 -109 l-47 -23 -7 95 c-3 52 -8 241
-11 420 -2 179 -6 353 -8 386 -13 168 -39 448 -55 590 -12 112 -18 246 -19
444 -1 157 -6 289 -11 294 -17 17 -27 -1 -46 -78 -20 -78 -33 -80 -34 -5 -1
19 -10 71 -21 115 -34 134 -52 218 -55 255 -1 20 -10 54 -20 75 -9 22 -21 49
-25 60 -4 11 -15 36 -23 55 -9 19 -21 48 -26 63 -6 16 -31 62 -56 103 -25 40
-45 76 -45 79 0 3 -4 11 -10 18 -5 7 -31 41 -57 77 -26 36 -64 83 -83 105
-101 114 -310 299 -373 331 -17 9 -50 29 -73 45 -115 78 -301 159 -469 204
-77 20 -254 31 -281 18 -14 -8 -39 -5 -96 12 -76 22 -181 39 -189 30z m135
-60 c20 -9 36 -20 36 -25 0 -6 9 -10 19 -10 26 0 34 -15 21 -40 -10 -19 -9
-20 17 -14 15 3 63 17 107 31 70 23 90 25 180 20 126 -6 190 -28 388 -131 293
-152 502 -332 652 -561 120 -183 192 -354 236 -560 8 -33 17 -65 22 -71 4 -6
5 -13 2 -17 -3 -3 -1 -15 5 -26 7 -11 15 -41 20 -65 6 -35 5 -46 -5 -50 -8 -3
-14 -14 -14 -25 0 -11 -5 -23 -12 -27 -7 -4 -8 -3 -4 4 4 7 2 12 -4 12 -8 0
-9 10 -5 29 7 35 -12 114 -26 105 -6 -3 -7 4 -3 20 4 16 2 26 -5 26 -6 0 -11
8 -11 17 0 15 -2 14 -14 -3 -14 -18 -16 -17 -50 21 -19 22 -33 46 -31 53 6 16
-12 16 -22 -1 -4 -7 -35 -19 -68 -27 -33 -8 -63 -19 -67 -24 -5 -8 -13 -8 -26
0 -14 9 -22 9 -35 -1 -21 -15 -21 -24 -1 -46 10 -11 12 -19 5 -24 -6 -3 -11
-1 -11 5 0 7 -12 25 -27 40 -16 16 -36 39 -46 50 -14 16 -22 19 -31 11 -10 -8
-17 -2 -31 27 -54 111 -72 143 -113 204 -48 73 -176 204 -220 227 -21 10 -17
3 20 -35 109 -113 328 -450 328 -506 0 -12 -5 -15 -17 -11 -13 5 -15 2 -10
-18 4 -13 7 -31 7 -39 1 -9 6 -6 14 8 12 23 13 23 36 -30 73 -171 126 -626 88
-756 -14 -48 -22 -32 -30 61 -4 45 -11 102 -16 126 -9 39 -7 46 9 60 20 16 24
46 21 144 -2 45 -4 48 -24 42 -18 -6 -20 -4 -13 11 16 37 16 101 0 157 -9 31
-21 57 -27 57 -6 0 -8 13 -4 33 5 31 5 31 -11 12 -8 -11 -13 -13 -10 -5 3 8 8
24 12 35 5 18 5 18 -6 4 -21 -29 -60 -5 -102 61 -20 33 -37 64 -37 68 0 5 -11
19 -25 32 -14 13 -25 30 -25 37 0 8 -4 11 -10 8 -6 -4 -4 -15 6 -30 9 -14 13
-32 10 -41 -3 -8 -2 -24 4 -34 8 -15 6 -17 -11 -13 -38 10 -47 -39 -14 -77 21
-24 30 -70 14 -70 -8 0 -2 -8 13 -18 19 -11 26 -22 22 -34 -3 -10 -1 -18 5
-18 14 0 14 -57 1 -65 -9 -6 -14 8 -11 28 1 5 -3 6 -8 3 -5 -4 -14 2 -20 11
-9 15 -10 13 -11 -12 0 -16 -3 -40 -6 -52 -4 -14 -2 -23 5 -23 7 0 9 5 6 10
-3 6 -2 10 3 10 6 0 9 -11 8 -24 -3 -53 -34 -10 -76 105 -13 35 -52 121 -87
190 -35 70 -63 129 -63 133 0 26 -193 246 -215 246 -4 0 -32 22 -62 50 -48 42
-113 79 -113 65 0 -3 39 -44 88 -92 95 -96 132 -141 132 -160 0 -7 5 -13 10
-13 6 0 13 -8 17 -17 3 -10 19 -34 33 -53 15 -19 36 -52 46 -72 11 -20 34 -62
51 -92 28 -47 31 -59 23 -82 -6 -15 -13 -24 -16 -21 -3 3 0 15 6 27 16 31 9
33 -17 4 -12 -13 -18 -24 -13 -24 4 0 4 -17 0 -37 -8 -36 -8 -37 7 -15 17 25
35 30 27 7 -8 -20 6 -19 21 1 10 15 14 14 39 -12 23 -25 49 -87 51 -119 0 -5
3 -12 6 -15 11 -9 51 -140 55 -180 l3 -39 -57 26 c-31 15 -59 29 -62 32 -3 3
-11 6 -17 7 -7 1 -23 2 -35 3 -19 1 -20 3 -8 11 10 6 11 10 3 10 -25 0 -13 16
14 18 32 3 45 12 16 12 -16 0 -22 9 -28 43 -4 23 -7 48 -6 55 1 6 -6 13 -16
14 -10 0 -22 2 -28 3 -32 8 -48 10 -78 13 -9 1 -25 18 -34 37 -18 39 -38 48
-27 13 6 -19 3 -18 -18 6 -22 26 -28 28 -54 19 -39 -12 -65 -6 -57 14 4 11 2
14 -5 9 -7 -4 -12 -2 -12 4 0 6 -5 8 -11 4 -7 -4 -7 -9 -2 -13 6 -3 15 -16 22
-29 7 -12 16 -20 22 -17 5 4 9 -3 9 -14 0 -15 4 -19 17 -14 11 4 14 3 9 -5 -4
-7 -1 -12 9 -12 9 0 13 -4 10 -10 -3 -5 3 -10 14 -10 14 0 19 -5 15 -15 -7
-18 7 -20 25 -2 11 10 13 8 9 -10 -4 -15 3 -30 23 -49 41 -40 36 -51 -8 -18
-21 15 -40 31 -43 34 -3 3 -25 21 -50 40 -25 19 -67 56 -95 82 -52 50 -65 57
-65 36 0 -9 -3 -10 -8 -2 -4 6 -25 23 -47 37 -53 34 -113 92 -173 169 -49 62
-96 108 -109 108 -4 0 -2 -5 5 -12 7 -7 12 -19 12 -28 -1 -40 -87 123 -97 185
-8 49 -21 53 -29 8 -3 -21 -15 -81 -26 -133 -22 -104 -32 -184 -48 -377 -11
-139 -25 -177 -34 -92 -3 30 -11 95 -17 144 -14 105 -16 226 -6 275 l8 35 -21
-40 c-46 -85 -191 -416 -231 -525 -17 -48 -29 -59 -29 -28 0 15 -3 35 -6 45
-5 15 -4 15 5 3 14 -20 14 1 -1 37 -6 15 -11 31 -10 36 1 4 -2 7 -8 7 -5 0 -7
14 -4 33 l5 32 -22 -40 c-12 -22 -17 -41 -11 -43 12 -4 -8 -62 -21 -62 -5 0
-7 6 -4 14 3 8 -1 22 -8 33 -14 17 -14 17 -15 -6 0 -18 -3 -21 -13 -12 -10 8
-17 7 -26 -2 -16 -16 -33 9 -26 38 3 13 1 12 -8 -5 -6 -14 -20 -36 -29 -50
-14 -19 -18 -21 -18 -7 0 9 4 17 9 17 5 0 12 10 16 23 10 30 12 76 3 70 -5 -2
-8 -16 -8 -31 0 -15 -5 -34 -10 -42 -31 -48 6 208 53 368 14 45 23 82 21 82
-13 0 -76 -156 -81 -199 -3 -28 -14 -75 -25 -103 l-18 -53 6 45 c3 25 12 85
19 135 19 127 9 134 -56 33 -97 -150 -152 -273 -194 -428 -10 -36 -26 -90 -36
-121 -11 -30 -19 -62 -19 -71 0 -27 -31 -79 -43 -71 -8 4 -7 1 1 -9 11 -13 10
-27 -2 -75 -26 -97 -43 -138 -59 -141 -9 -2 -19 -17 -22 -34 -13 -56 -25 -8
-19 70 5 46 3 72 -3 72 -6 0 -13 10 -16 21 -6 21 -3 28 21 76 7 13 12 30 12
38 0 8 7 15 15 15 8 0 15 5 15 11 0 6 -7 9 -15 5 -20 -7 -19 4 3 21 9 8 12 12
6 9 -18 -9 -23 66 -8 123 7 29 16 80 19 114 11 105 45 239 77 297 16 30 27 52
22 48 -4 -4 -13 -3 -21 3 -10 9 -18 0 -38 -45 -14 -31 -25 -61 -25 -66 0 -6
-5 -18 -10 -28 -6 -9 -25 -75 -43 -147 -21 -83 -37 -129 -45 -127 -7 1 -12 -5
-12 -14 0 -8 4 -12 10 -9 14 9 12 -22 -6 -90 -9 -33 -20 -85 -24 -115 -16
-105 -19 -125 -34 -185 -31 -121 -46 -191 -52 -238 -4 -26 -11 -50 -15 -53 -5
-3 -9 -29 -10 -57 -1 -50 -1 -51 -9 -17 -5 19 -13 113 -19 209 -12 183 -4 356
25 535 8 49 12 91 9 94 -28 29 -205 -451 -205 -557 0 -19 -3 -31 -6 -28 -11
11 -14 238 -4 307 5 36 14 108 21 160 6 52 20 136 31 185 10 50 23 113 28 140
5 28 16 71 24 97 8 26 11 50 6 53 -4 3 -11 -3 -14 -12 -6 -15 -8 -15 -16 -3
-7 11 -10 7 -10 -15 0 -17 -11 -61 -25 -99 -33 -91 -79 -287 -94 -401 -14
-101 -14 -105 -41 -230 -64 -293 -65 -293 -105 -25 -13 86 -13 121 -4 197 6
50 9 97 7 105 -3 7 -24 -26 -47 -74 -36 -74 -46 -86 -60 -78 -15 8 -16 18 -9
82 18 170 109 559 135 577 5 3 10 21 11 40 1 18 7 42 13 53 6 11 9 22 6 24 -6
6 -70 -127 -90 -187 -22 -65 -77 -302 -77 -332 0 -13 -6 -39 -14 -57 l-14 -33
-13 24 c-10 18 -14 68 -14 191 0 97 -4 163 -9 158 -5 -5 -11 -73 -14 -152 -6
-146 -19 -151 -21 -8 -2 166 37 321 135 528 124 263 172 347 242 425 26 30 82
94 124 143 121 140 373 382 439 421 28 17 38 33 21 33 -16 0 -188 -143 -275
-229 -49 -47 -140 -143 -203 -213 l-115 -126 -57 37 c-31 21 -83 53 -114 71
-32 17 -58 35 -58 39 0 16 48 50 120 86 41 21 93 52 116 69 104 78 331 200
484 260 52 21 105 43 117 49 30 14 44 0 19 -19 -26 -18 -14 -29 13 -12 14 8
19 19 15 31 -5 16 -3 17 15 5 15 -9 24 -10 29 -2 12 18 120 65 206 89 150 43
175 45 371 25 225 -22 255 -22 302 6 43 25 55 44 29 44 -7 0 -24 -9 -38 -19
-13 -11 -37 -23 -52 -27 -26 -6 -138 5 -272 27 -34 6 -83 11 -110 12 -32 0
-42 3 -29 7 67 24 122 34 213 36 57 1 107 5 110 9 11 11 126 -4 166 -20z m206
-25 c0 -12 -33 -30 -54 -30 -23 0 -19 15 7 28 28 14 47 15 47 2z m-199 -1350
c13 -19 51 -70 84 -113 58 -75 81 -96 68 -59 -6 15 -5 16 13 2 10 -8 26 -22
34 -31 21 -22 181 -163 260 -228 36 -30 66 -57 68 -61 2 -5 -21 -11 -50 -15
-66 -9 -148 -49 -225 -107 -61 -48 -102 -88 -88 -88 4 0 37 22 74 49 85 63
160 100 225 112 28 5 62 11 76 14 18 4 34 -2 59 -25 19 -17 85 -69 148 -116
139 -106 295 -262 304 -304 4 -17 4 -32 0 -34 -4 -3 -27 16 -51 41 -58 58
-145 116 -218 145 -47 18 -76 22 -167 23 -96 0 -116 -3 -160 -24 -27 -13 -58
-31 -67 -39 -10 -8 -23 -12 -30 -9 -8 2 -24 -4 -37 -14 -13 -11 -19 -19 -14
-19 5 0 15 6 23 13 8 6 -2 -8 -21 -33 -37 -48 -79 -123 -79 -142 0 -6 11 -1
25 12 29 27 30 22 11 -42 -14 -44 -12 -58 5 -58 4 0 27 38 50 84 23 46 56 99
73 118 30 34 74 64 82 56 2 -2 -6 -23 -18 -47 -43 -88 -34 -302 17 -366 15
-19 16 -19 28 -2 7 10 17 25 22 33 11 15 57 18 146 8 56 -6 56 -5 88 32 17 21
31 49 31 61 0 18 5 22 23 19 12 -3 25 -5 28 -5 4 -1 6 -30 4 -65 -3 -78 -26
-122 -81 -153 -47 -27 -73 -29 -113 -5 -23 13 -35 14 -48 6 -27 -17 -25 -28 6
-47 47 -28 118 -22 171 14 103 69 135 134 135 274 0 55 -4 113 -8 128 -7 27
-6 26 26 -10 19 -21 39 -48 46 -60 14 -27 14 -120 0 -161 -6 -17 -9 -39 -7
-49 2 -12 17 9 42 57 21 41 43 80 48 85 7 7 8 -87 5 -280 -5 -248 -9 -310 -30
-427 -20 -108 -32 -151 -57 -195 -72 -127 -167 -222 -385 -387 -168 -127 -341
-216 -420 -216 -20 0 -110 30 -208 69 -94 37 -233 92 -307 120 -140 54 -280
124 -339 170 -77 60 -158 148 -182 201 -15 30 -70 188 -124 350 -77 233 -98
308 -98 355 -2 105 45 426 79 538 6 20 75 23 189 7 73 -11 105 -32 105 -70 0
-10 9 -37 19 -61 11 -24 17 -47 15 -51 -3 -4 4 -8 15 -8 11 0 23 -4 26 -10 3
-5 13 -10 21 -10 11 0 12 4 4 19 -7 13 -7 22 0 26 5 3 10 15 10 26 0 10 4 27
9 37 5 9 12 25 15 35 4 11 16 17 38 17 l33 1 -28 15 c-21 11 -27 20 -22 32 16
38 60 156 111 295 60 166 124 320 153 368 l20 33 -6 -92 c-16 -240 82 -620
211 -827 31 -48 32 -37 6 39 -38 110 -70 352 -70 523 0 111 22 350 45 497 8
55 15 106 15 115 0 9 11 -4 24 -29 13 -25 34 -61 47 -80z m1206 28 c-3 -7 -5
-2 -5 12 0 14 2 19 5 13 2 -7 2 -19 0 -25z m278 22 c3 -5 1 -10 -4 -10 -6 0
-11 5 -11 10 0 6 2 10 4 10 3 0 8 -4 11 -10z m-435 -100 c0 -5 -2 -10 -4 -10
-3 0 -8 5 -11 10 -3 6 -1 10 4 10 6 0 11 -4 11 -10z m323 -138 c9 -31 17 -64
17 -72 -1 -21 -46 68 -55 107 -12 57 18 29 38 -35z m-564 12 c-15 -18 -22 -13
-13 10 3 9 10 13 16 10 5 -3 4 -12 -3 -20z m305 -38 c-3 -7 2 -21 12 -30 17
-17 16 -30 -1 -18 -26 19 -40 82 -15 67 5 -3 7 -12 4 -19z m566 -10 c0 -8 3
-21 6 -29 3 -8 -1 -17 -8 -19 -9 -4 -13 5 -14 28 0 19 3 34 8 34 4 0 8 -6 8
-14z m-2459 -102 c-14 -74 -15 -295 -1 -274 5 8 7 24 4 35 -5 18 -4 18 9 5 10
-11 16 -49 21 -135 l6 -120 -125 0 c-94 0 -125 3 -125 13 0 18 74 235 109 321
17 41 31 77 31 81 0 4 17 43 37 86 40 86 51 82 34 -12z m2179 12 c0 -8 3 -21
6 -30 3 -9 2 -16 -4 -16 -5 0 -12 14 -14 30 -3 17 -1 30 4 30 4 0 8 -6 8 -14z
m-221 -68 c30 -66 44 -125 29 -134 -4 -3 -8 5 -8 16 0 12 -7 38 -16 58 -26 61
-32 76 -39 100 -12 41 4 22 34 -40z m-434 13 c-3 -6 -11 -8 -17 -5 -6 4 -5 9
3 15 16 10 23 4 14 -10z m365 5 c0 -8 5 -16 12 -18 8 -3 12 -25 10 -64 -1 -32
5 -142 13 -244 15 -190 19 -424 7 -450 -15 -34 -32 -20 -34 27 -2 80 -5 104
-27 223 -34 189 -41 234 -35 239 3 3 9 -1 13 -8 13 -20 24 36 12 57 -9 15 -10
15 -11 1 0 -9 -7 -22 -15 -29 -13 -11 -15 -7 -17 21 -2 52 -4 62 -17 92 -6 16
-14 45 -17 66 -5 30 -3 38 10 38 9 0 16 -9 16 -19 0 -10 -4 -18 -9 -18 -5 0
-7 -9 -4 -21 3 -11 11 -18 19 -15 9 3 12 -3 10 -22 -4 -37 3 -55 18 -43 8 7
10 30 6 72 -4 44 -2 65 7 75 7 7 13 22 13 33 0 12 5 21 10 21 6 0 10 -6 10
-14z m309 -49 c0 -21 -1 -21 -9 -2 -12 28 -12 37 0 30 6 -3 10 -16 9 -28z
m-743 -24 c-10 -10 -19 5 -10 18 6 11 8 11 12 0 2 -7 1 -15 -2 -18z m64 -21
c0 -7 5 -10 10 -7 6 3 10 1 10 -4 0 -14 -9 -14 -48 0 -37 13 -36 24 2 24 15 0
26 -6 26 -13z m712 -14 c3 -7 -1 -26 -8 -43 l-12 -30 0 43 c0 40 11 56 20 30z
m-691 -67 c-8 -5 -20 -7 -28 -4 -21 8 -15 13 15 13 20 0 23 -3 13 -9z m466
-53 c-2 -13 -4 -5 -4 17 -1 22 1 32 4 23 2 -10 2 -28 0 -40z m-1718 0 c1 -5
-3 -8 -9 -8 -5 0 -10 12 -9 28 0 24 1 25 9 7 5 -11 9 -23 9 -27z m1333 33 c13
-5 42 -15 66 -22 23 -7 42 -16 42 -21 0 -5 4 -7 9 -3 5 3 14 -9 20 -27 11 -34
24 -143 15 -120 -8 17 -24 15 -24 -3 0 -12 -7 -9 -26 10 -15 15 -24 33 -21 44
3 14 -1 17 -19 13 -17 -3 -38 11 -91 62 -37 36 -62 66 -55 66 6 0 12 -5 12
-11 0 -5 5 -7 10 -4 6 3 10 -2 10 -12 0 -14 2 -15 9 -4 6 9 11 10 15 2 4 -6 5
-15 2 -20 -4 -5 3 -7 14 -4 31 8 23 29 -17 46 -29 12 -33 16 -16 16 12 1 32
-3 45 -8z m605 -38 c-3 -10 -5 -4 -5 12 0 17 2 24 5 18 2 -7 2 -21 0 -30z
m103 3 c0 -3 -4 -8 -10 -11 -5 -3 -10 -1 -10 4 0 6 5 11 10 11 6 0 10 -2 10
-4z m87 -18 c-3 -8 -6 -5 -6 6 -1 11 2 17 5 13 3 -3 4 -12 1 -19z m-839 -360
c7 -7 12 -29 12 -50 0 -42 -7 -45 -59 -27 -35 12 -51 50 -31 74 15 18 61 20
78 3z m-78 -109 c0 -20 -24 -26 -35 -9 -8 13 14 42 26 34 5 -3 9 -14 9 -25z
m948 -139 c0 -9 -3 -7 -8 5 -5 11 -8 29 -8 40 0 16 2 15 8 -5 4 -14 8 -32 8
-40z m-3458 -35 c6 16 8 12 12 -18 2 -20 0 -43 -5 -50 -6 -8 -7 -6 -3 6 3 11
0 17 -9 17 -11 0 -15 11 -14 43 2 34 3 37 7 12 4 -26 5 -27 12 -10z m3440 -15
c0 -5 -4 -10 -10 -10 -5 0 -10 5 -10 10 0 6 5 10 10 10 6 0 10 -4 10 -10z m22
-32 c-7 -7 -12 -8 -12 -2 0 14 12 26 19 19 2 -3 -1 -11 -7 -17z m-3462 -57 c0
-6 -4 -13 -10 -16 -5 -3 -10 1 -10 9 0 9 5 16 10 16 6 0 10 -4 10 -9z m16 -21
c-3 -17 -2 -29 3 -26 5 3 3 -11 -5 -32 -15 -43 -18 -91 -5 -76 5 5 11 20 14
34 2 14 4 4 4 -21 0 -25 4 -56 8 -68 5 -16 4 -21 -4 -17 -7 5 -11 -5 -11 -28
0 -69 -17 -35 -28 57 -12 99 -13 165 -2 146 4 -6 10 5 14 25 4 20 10 36 13 36
3 0 3 -14 -1 -30z m3258 -61 c-10 -28 -27 -55 -36 -60 -23 -13 -23 -2 3 57 39
93 66 95 33 3z m-3356 -45 c-3 -14 -5 -12 -10 9 -3 19 -2 25 4 19 6 -6 8 -18
6 -28z m3397 -62 c-8 -8 -12 0 -19 38 l-7 35 16 -34 c8 -19 13 -36 10 -39z
m-3396 -42 c0 -9 -4 -8 -9 5 -5 11 -9 27 -9 35 0 9 4 8 9 -5 5 -11 9 -27 9
-35z m278 -92 c-3 -22 -4 -21 -11 4 -5 16 -5 36 0 45 7 16 8 15 11 -4 3 -13 3
-33 0 -45z m-167 2 c0 -5 -5 -10 -11 -10 -5 0 -7 5 -4 10 3 6 8 10 11 10 2 0
4 -4 4 -10z m-20 -40 c0 -5 -2 -10 -4 -10 -3 0 -8 5 -11 10 -3 6 -1 10 4 10 6
0 11 -4 11 -10z m169 -85 c0 -5 -6 1 -14 15 -8 14 -14 30 -14 35 0 6 6 -1 14
-15 8 -14 14 -29 14 -35z m41 30 c11 -13 10 -14 -4 -9 -9 3 -16 10 -16 15 0
13 6 11 20 -6z m634 -237 c-9 -13 -30 10 -38 42 l-7 25 26 -28 c14 -16 22 -33
19 -39z m-794 -22 c0 -9 -40 -13 -46 -5 -3 5 6 9 20 9 14 0 26 -2 26 -4z m790
-6 c0 13 1 13 10 0 5 -8 10 -10 11 -5 1 14 17 -27 18 -45 0 -10 -6 -6 -19 10
-11 14 -20 19 -20 12 0 -7 -4 -10 -10 -7 -5 3 -10 16 -10 28 0 18 2 19 10 7 9
-13 10 -13 10 0z m-240 -127 c0 -18 6 -47 14 -65 19 -46 46 -141 46 -164 0
-24 49 -176 61 -188 13 -14 11 -29 -2 -21 -15 10 -84 159 -113 246 -25 77 -44
218 -31 239 11 18 25 -8 25 -47z m3060 -213 c0 -5 -4 -10 -10 -10 -5 0 -10 5
-10 10 0 6 5 10 10 10 6 0 10 -4 10 -10z m-50 -43 c0 -26 -15 -12 -25 23 -7
22 -6 23 9 11 9 -7 16 -23 16 -34z m99 -15 c1 -8 -5 -12 -11 -9 -7 2 -20 1
-29 -4 -8 -4 -22 -4 -30 1 -19 13 0 44 30 48 11 2 21 9 22 15 1 13 16 -30 18
-51z m-2370 -61 c18 -11 -125 -67 -194 -75 -35 -4 -44 -3 -30 3 11 5 35 10 53
10 18 1 31 5 27 10 -3 6 9 13 27 16 18 4 44 15 58 25 28 22 39 24 59 11z
m-286 -88 c-7 -2 -21 -2 -30 0 -10 3 -4 5 12 5 17 0 24 -2 18 -5z m2863 -15
c-1 -7 -5 -19 -9 -25 -5 -7 -5 -18 -1 -25 5 -7 3 -8 -5 -4 -7 5 -10 15 -7 23
4 9 -1 17 -14 20 -30 8 -24 23 9 23 18 0 28 -5 27 -12z m45 -141 c-8 -8 -11
-4 -11 14 0 33 14 47 18 19 2 -12 -1 -27 -7 -33z m-411 13 c0 -5 -7 -10 -15
-10 -8 0 -15 5 -15 10 0 6 7 10 15 10 8 0 15 -4 15 -10z m-3165 -10 c3 -5 1
-10 -4 -10 -6 0 -11 5 -11 10 0 6 2 10 4 10 3 0 8 -4 11 -10z m525 -41 c0 -6
-13 -1 -30 11 -16 12 -30 23 -30 26 0 2 14 -2 30 -11 17 -9 30 -20 30 -26z
m2731 3 c5 -14 7 -27 4 -30 -3 -3 -5 0 -5 7 0 8 -6 11 -16 7 -9 -3 -12 -2 -9
5 4 5 2 16 -4 23 -8 9 -7 13 5 13 9 0 20 -11 25 -25z m-3351 3 c-7 -8 -20 -15
-29 -15 -11 1 -8 5 9 15 32 18 35 18 20 0z m-70 -26 c0 -9 -29 -39 -38 -39 -3
0 -1 5 5 11 6 6 9 17 7 24 -3 6 2 12 11 12 8 0 15 -4 15 -8z m3280 7 c0 -2 -7
-6 -15 -10 -8 -3 -15 -1 -15 4 0 6 7 10 15 10 8 0 15 -2 15 -4z m465 -6 c3 -5
1 -10 -4 -10 -6 0 -11 5 -11 10 0 6 2 10 4 10 3 0 8 -4 11 -10z m-295 -65 c0
-13 5 -27 10 -30 6 -3 10 -12 10 -18 -1 -21 -30 26 -30 47 0 17 -2 18 -10 6
-11 -17 -13 -10 -4 14 8 22 24 10 24 -19z m-3500 21 c0 -7 -62 -36 -74 -36 -6
1 5 9 24 20 35 19 50 24 50 16z m-120 -56 c0 -5 -5 -10 -11 -10 -5 0 -7 5 -4
10 3 6 8 10 11 10 2 0 4 -4 4 -10z m3650 -60 c0 -5 -4 -10 -10 -10 -5 0 -10 5
-10 10 0 6 5 10 10 10 6 0 10 -4 10 -10z m320 -40 c12 -8 11 -10 -7 -10 -13 0
-23 5 -23 10 0 13 11 13 30 0z m-261 -198 c0 -24 -1 -25 -9 -7 -12 28 -12 47
0 40 6 -3 10 -18 9 -33z m231 -182 c-8 -5 -17 -7 -19 -4 -3 3 1 9 9 14 8 5 17
7 19 4 3 -3 -1 -9 -9 -14z m-173 -22 c-3 -8 -6 -5 -6 6 -1 11 2 17 5 13 3 -3
4 -12 1 -19z"/>
<path d="M2175 4720 c-3 -5 -2 -10 4 -10 5 0 13 5 16 10 3 6 2 10 -4 10 -5 0
-13 -4 -16 -10z"/>
<path d="M3090 3670 c0 -5 5 -10 11 -10 5 0 7 5 4 10 -3 6 -8 10 -11 10 -2 0
-4 -4 -4 -10z"/>
<path d="M3124 3618 c8 -39 15 -47 25 -29 11 18 2 48 -16 55 -13 5 -14 0 -9
-26z"/>
<path d="M3616 3573 c-11 -11 -7 -20 9 -20 8 0 15 4 15 8 0 11 -16 20 -24 12z"/>
<path d="M3415 3550 c-4 -6 7 -10 27 -10 25 0 29 3 18 10 -19 13 -37 13 -45 0z"/>
<path d="M3721 3537 c17 -32 19 -33 19 -10 0 12 -7 23 -15 27 -13 5 -14 2 -4
-17z"/>
<path d="M3287 3484 c-11 -11 -8 -34 3 -34 6 0 10 8 10 18 0 15 2 15 11 2 9
-12 10 -12 7 -1 -5 17 -21 25 -31 15z"/>
<path d="M3031 3474 c0 -6 10 -32 24 -59 13 -27 21 -53 18 -58 -3 -6 -1 -7 5
-3 7 4 12 1 12 -8 0 -9 4 -16 10 -16 5 0 -2 22 -15 49 -14 27 -25 54 -25 60 0
6 -4 11 -9 11 -5 0 -12 8 -14 18 -3 9 -5 12 -6 6z"/>
<path d="M2845 3460 c-3 -5 -1 -10 4 -10 6 0 11 5 11 10 0 6 -2 10 -4 10 -3 0
-8 -4 -11 -10z"/>
<path d="M2864 3419 c-4 -7 -1 -10 7 -7 22 7 44 -20 30 -36 -12 -14 0 -31 13
-19 12 12 6 40 -12 56 -22 20 -28 21 -38 6z"/>
<path d="M3330 3393 c0 -6 -3 -18 -6 -27 -3 -9 -2 -16 4 -16 15 0 21 25 11 41
-5 9 -9 9 -9 2z"/>
<path d="M3110 3289 c0 -11 4 -18 10 -14 5 3 7 12 3 20 -7 21 -13 19 -13 -6z"/>
<path d="M2750 3246 c0 -15 47 -39 54 -28 2 4 -9 15 -25 24 -22 13 -29 14 -29
4z"/>
<path d="M3136 3251 c-4 -7 -5 -15 -2 -18 9 -9 19 4 14 18 -4 11 -6 11 -12 0z"/>
<path d="M2987 3234 c-4 -4 -7 -17 -7 -28 1 -19 1 -20 11 -3 11 19 8 43 -4 31z"/>
<path d="M3007 3184 c-4 -4 -7 -14 -7 -23 0 -11 3 -12 11 -4 6 6 10 16 7 23
-2 6 -7 8 -11 4z"/>
<path d="M1107 3163 c-4 -3 -7 -13 -7 -22 1 -13 3 -13 11 2 11 19 8 33 -4 20z"/>
<path d="M3023 3131 c-8 -13 -9 -22 -3 -26 11 -7 24 18 18 35 -2 6 -9 1 -15
-9z"/>
<path d="M1070 3120 c0 -6 4 -9 9 -6 5 4 12 1 14 -4 3 -6 4 -5 3 2 -3 15 -26
23 -26 8z"/>
<path d="M1672 3100 c0 -14 2 -19 5 -12 2 6 2 18 0 25 -3 6 -5 1 -5 -13z"/>
<path d="M1054 2975 c0 -22 -3 -49 -8 -60 -7 -18 -6 -18 4 -2 6 9 15 15 21 12
5 -4 9 13 9 37 0 29 -3 38 -9 29 -7 -11 -10 -10 -13 5 -3 10 -5 1 -4 -21z"/>
<path d="M1031 2874 c0 -11 3 -14 6 -6 3 7 2 16 -1 19 -3 4 -6 -2 -5 -13z"/>
<path d="M1036 2823 c-6 -14 -5 -15 5 -6 7 7 10 15 7 18 -3 3 -9 -2 -12 -12z"/>
<path d="M3441 2824 c0 -11 3 -14 6 -6 3 7 2 16 -1 19 -3 4 -6 -2 -5 -13z"/>
<path d="M2391 3180 c13 -19 57 -69 98 -110 51 -53 61 -60 32 -25 -68 83 -156
174 -130 135z"/>
<path d="M2440 2654 c-17 -15 -29 -28 -27 -31 3 -2 20 10 38 26 41 38 33 41
-11 5z"/>
<path d="M1315 2405 c-90 -49 -157 -141 -189 -260 -7 -24 58 -128 113 -184 20
-19 36 -42 36 -50 0 -8 6 -16 13 -19 19 -6 14 13 -16 65 -41 70 -52 108 -52
185 0 79 14 119 58 166 46 49 62 43 55 -21 -7 -72 13 -187 44 -245 14 -26 27
-49 29 -51 8 -9 32 22 27 35 -6 16 7 17 60 4 109 -29 110 -29 138 -15 17 9 30
26 34 44 6 28 7 29 26 13 21 -18 26 -71 8 -104 -18 -34 -73 -50 -144 -43 -75
8 -92 -6 -35 -29 50 -20 83 -20 119 -2 43 23 99 91 106 130 7 35 -8 123 -27
160 -7 13 -6 21 2 26 22 14 -76 137 -142 177 -48 30 -67 35 -135 40 -71 4 -83
2 -128 -22z m350 -145 c17 -18 17 -21 1 -45 -34 -52 -86 -10 -56 44 14 26 32
27 55 1z m-65 -96 c0 -8 -4 -14 -9 -14 -12 0 -32 26 -25 33 10 9 34 -4 34 -19z"/>
<path d="M2718 1943 c7 -3 16 -2 19 1 4 3 -2 6 -13 5 -11 0 -14 -3 -6 -6z"/>
<path d="M2817 1939 c7 -7 24 -8 54 -1 l44 10 -54 1 c-40 1 -52 -2 -44 -10z"/>
<path d="M1356 1815 c-4 -11 1 -15 19 -15 13 0 27 -4 30 -10 9 -14 25 -12 25
3 0 8 -11 19 -25 25 -34 16 -42 15 -49 -3z"/>
<path d="M2022 1637 c-14 -17 -7 -43 13 -51 21 -8 24 5 10 37 -10 24 -13 26
-23 14z"/>
<path d="M2526 1315 c-3 -9 -22 -23 -41 -31 -39 -16 -44 -24 -16 -24 21 0 81
46 81 61 0 15 -17 10 -24 -6z"/>
<path d="M2028 1229 c8 -8 39 -14 85 -15 71 -2 71 -2 17 5 -30 4 -68 11 -85
16 -25 6 -28 5 -17 -6z"/>
<path d="M3262 3005 c0 -16 2 -22 5 -12 2 9 2 23 0 30 -3 6 -5 -1 -5 -18z"/>
<path d="M3011 2837 c-1 -11 8 -21 19 -24 11 -3 20 -10 20 -15 0 -5 5 -6 10
-3 11 7 -12 35 -28 35 -6 0 -13 6 -15 13 -3 7 -6 4 -6 -6z"/>
<path d="M3131 2804 c0 -11 3 -14 6 -6 3 7 2 16 -1 19 -3 4 -6 -2 -5 -13z"/>
<path d="M4508 4003 c12 -2 32 -2 45 0 12 2 2 4 -23 4 -25 0 -35 -2 -22 -4z"/>
<path d="M4738 4003 c7 -3 16 -2 19 1 4 3 -2 6 -13 5 -11 0 -14 -3 -6 -6z"/>
<path d="M3865 3630 c-3 -5 -1 -10 4 -10 6 0 11 5 11 10 0 6 -2 10 -4 10 -3 0
-8 -4 -11 -10z"/>
<path d="M227 2133 c-4 -3 -7 -11 -7 -17 0 -6 5 -5 12 2 6 6 9 14 7 17 -3 3
-9 2 -12 -2z"/>
<path d="M3601 1814 c0 -11 3 -14 6 -6 3 7 2 16 -1 19 -3 4 -6 -2 -5 -13z"/>
<path d="M3644 1650 c-55 -22 -89 -122 -60 -178 9 -18 23 -32 30 -32 8 0 16
-3 18 -7 6 -14 69 -43 94 -43 13 0 24 -4 24 -10 0 -5 7 -10 15 -10 12 0 15 15
15 79 0 44 -4 82 -9 85 -4 3 -11 23 -15 45 -4 26 -15 47 -32 60 -28 22 -46 25
-80 11z m75 -65 c11 -14 24 -48 30 -76 17 -80 17 -82 -31 -76 -47 5 -109 26
-120 42 -4 6 -8 26 -8 46 0 34 4 39 48 62 59 32 56 32 81 2z"/>
<path d="M3770 1295 c-19 -50 -10 -115 16 -115 27 0 30 119 3 135 -5 4 -14 -6
-19 -20z"/>
<path d="M3205 1296 c-33 -14 -91 -83 -80 -94 4 -4 10 0 13 8 3 8 20 30 38 48
30 30 37 32 88 31 31 -1 56 -6 56 -11 0 -4 5 -8 10 -8 19 0 10 17 -15 28 -33
15 -72 15 -110 -2z"/>
<path d="M3380 1251 c0 -5 5 -13 10 -16 6 -3 10 -2 10 4 0 5 -4 13 -10 16 -5
3 -10 2 -10 -4z"/>
<path d="M3405 1131 c0 -44 3 -82 6 -86 10 -9 21 110 13 139 -12 47 -19 27
-19 -53z"/>
<path d="M3090 1169 c-7 -11 -28 -38 -47 -60 -19 -21 -31 -39 -25 -39 6 0 32
27 57 60 25 33 42 60 36 60 -6 0 -15 -9 -21 -21z"/>
<path d="M3730 1140 c0 -5 7 -10 15 -10 8 0 15 5 15 10 0 6 -7 10 -15 10 -8 0
-15 -4 -15 -10z"/>
<path d="M4150 1030 c-8 -5 -10 -10 -5 -10 6 0 17 5 25 10 8 5 11 10 5 10 -5
0 -17 -5 -25 -10z"/>
<path d="M3397 1013 c-4 -3 -7 -11 -7 -17 0 -6 5 -5 12 2 6 6 9 14 7 17 -3 3
-9 2 -12 -2z"/>
<path d="M4370 919 c0 -5 5 -7 10 -4 6 3 10 8 10 11 0 2 -4 4 -10 4 -5 0 -10
-5 -10 -11z"/>
<path d="M1720 764 c-89 -90 -128 -118 -246 -178 -109 -56 -103 -60 9 -7 101
48 163 92 244 173 35 34 65 60 67 57 2 -2 -2 -35 -10 -74 -34 -178 0 -467 66
-547 16 -19 14 -10 -10 62 -16 47 -36 127 -45 179 -16 93 -13 170 12 369 3 23
1 42 -3 42 -5 0 -43 -34 -84 -76z"/>
<path d="M4492 800 c0 -14 2 -19 5 -12 2 6 2 18 0 25 -3 6 -5 1 -5 -13z"/>
<path d="M2214 795 c15 -8 36 -15 45 -15 9 1 1 7 -18 15 -44 19 -64 19 -27 0z"/>
<path d="M2428 783 c6 -2 18 -2 25 0 6 3 1 5 -13 5 -14 0 -19 -2 -12 -5z"/>
<path d="M4525 771 c-3 -6 -14 -8 -25 -6 -12 2 -18 0 -15 -5 3 -4 -1 -11 -7
-13 -7 -3 -4 -6 7 -6 11 0 31 8 45 19 14 11 20 20 13 20 -6 0 -14 -4 -18 -9z"/>
<path d="M2340 759 c0 -5 5 -7 10 -4 6 3 10 8 10 11 0 2 -4 4 -10 4 -5 0 -10
-5 -10 -11z"/>
<path d="M4475 710 c-7 -12 12 -12 40 0 18 8 17 9 -7 9 -15 1 -30 -3 -33 -9z"/>
<path d="M2142 689 c-5 -13 -14 -69 -21 -124 -6 -55 -16 -133 -22 -173 -6 -41
-9 -108 -8 -150 l4 -76 -70 -22 c-43 -13 -71 -28 -73 -37 -5 -23 76 -107 102
-107 18 0 16 4 -16 33 -20 17 -41 41 -46 52 -9 17 -4 21 56 41 37 11 70 19 75
17 4 -2 7 -35 7 -74 l0 -69 29 0 c32 0 33 2 46 103 6 44 8 47 28 41 12 -4 41
-18 65 -31 32 -19 42 -31 43 -51 0 -15 3 -21 6 -14 5 14 33 17 33 3 0 -5 -12
-19 -26 -30 l-27 -21 24 0 c14 0 32 12 43 27 l19 26 -35 31 c-19 17 -49 39
-67 48 l-32 18 24 32 c34 46 46 82 57 168 13 101 13 320 0 300 -5 -8 -10 -62
-10 -120 0 -152 -17 -276 -42 -322 -23 -41 -24 -41 -78 -38 -39 2 -49 13 -51
50 0 14 -3 18 -6 10 -11 -36 -27 -60 -39 -60 -33 0 -43 79 -24 181 6 30 15 97
21 149 5 52 14 119 20 148 11 57 6 81 -9 41z"/>
<path d="M2913 653 c-25 -26 -57 -66 -71 -88 -14 -22 -33 -49 -43 -60 -9 -11
-27 -40 -40 -65 -13 -25 -27 -47 -30 -50 -21 -19 -70 -104 -67 -117 2 -12 7
-8 18 13 51 100 223 349 270 391 14 12 21 23 17 23 -4 0 -28 -21 -54 -47z"/>
<path d="M3480 650 c-13 -8 -13 -10 2 -10 9 0 20 5 23 10 8 13 -5 13 -25 0z"/>
<path d="M4580 450 c0 -5 4 -10 9 -10 5 0 16 -3 25 -6 11 -4 16 -1 16 10 0 10
-9 16 -25 16 -14 0 -25 -4 -25 -10z"/>
<path d="M2183 400 c0 -25 2 -35 4 -22 2 12 2 32 0 45 -2 12 -4 2 -4 -23z"/>
<path d="M4525 430 c-17 -7 -15 -9 13 -9 17 -1 32 4 32 9 0 12 -17 12 -45 0z"/>
<path d="M4537 404 c-8 -8 1 -24 14 -24 5 0 9 7 9 15 0 15 -12 20 -23 9z"/>
<path d="M1251 350 c-1 -8 -4 -26 -7 -40 -5 -19 -4 -22 5 -14 7 6 11 24 8 40
-2 16 -5 22 -6 14z"/>
<path d="M4430 310 c0 -5 7 -10 15 -10 8 0 15 5 15 10 0 6 -7 10 -15 10 -8 0
-15 -4 -15 -10z"/>
<path d="M2961 274 c0 -11 3 -14 6 -6 3 7 2 16 -1 19 -3 4 -6 -2 -5 -13z"/>
<path d="M1118 190 c-25 -138 -30 -190 -20 -190 5 0 12 40 16 89 4 50 11 103
17 120 6 16 9 40 7 53 -2 13 -11 -20 -20 -72z"/>
<path d="M2630 245 c-8 -9 -8 -15 -2 -15 12 0 26 19 19 26 -2 2 -10 -2 -17
-11z"/>
<path d="M1252 205 c0 -16 2 -22 5 -12 2 9 2 23 0 30 -3 6 -5 -1 -5 -18z"/>
<path d="M2517 105 c-88 -95 -104 -123 -36 -62 49 43 140 157 127 157 -2 0
-43 -43 -91 -95z"/>
<path d="M1870 148 c0 -9 5 -20 10 -23 13 -8 13 5 0 25 -8 13 -10 13 -10 -2z"/>
<path d="M327 75 c3 -38 7 -72 9 -74 7 -8 2 94 -6 119 -5 15 -6 -4 -3 -45z"/>
<path d="M4435 130 c-3 -5 -2 -10 4 -10 5 0 13 5 16 10 3 6 2 10 -4 10 -5 0
-13 -4 -16 -10z"/>
<path d="M4348 3 c17 -2 47 -2 65 0 17 2 3 4 -33 4 -36 0 -50 -2 -32 -4z"/>
<path d="M4463 3 c9 -2 23 -2 30 0 6 3 -1 5 -18 5 -16 0 -22 -2 -12 -5z"/>
<path d="M4548 3 c7 -3 16 -2 19 1 4 3 -2 6 -13 5 -11 0 -14 -3 -6 -6z"/>
<path d="M4933 3 c9 -2 23 -2 30 0 6 3 -1 5 -18 5 -16 0 -22 -2 -12 -5z"/>
</g>
</svg>
